<?xml version="1.0" encoding="utf-8"?>
<!-- Generator: Adobe Illustrator 24.2.1, SVG Export Plug-In . SVG Version: 6.00 Build 0)  -->
<svg version="1.1"
	 id="Layer_1" xmlns:cc="http://creativecommons.org/ns#" xmlns:dc="http://purl.org/dc/elements/1.1/" xmlns:inkscape="http://www.inkscape.org/namespaces/inkscape" xmlns:rdf="http://www.w3.org/1999/02/22-rdf-syntax-ns#" xmlns:sodipodi="http://sodipodi.sourceforge.net/DTD/sodipodi-0.dtd" xmlns:svg="http://www.w3.org/2000/svg"
	 xmlns="http://www.w3.org/2000/svg" xmlns:xlink="http://www.w3.org/1999/xlink" x="0px" y="0px" viewBox="0 0 22.5 22.5"
	 style="enable-background:new 0 0 22.5 22.5;" xml:space="preserve">
<g>
	<path class="st0" d="M8.1,1.4C8.1,0.6,8.7,0,9.4,0c5,0,9,4,9,9c0,0.7-0.6,1.4-1.4,1.4S15.8,9.7,15.8,9c0-3.5-2.8-6.3-6.3-6.3
		C8.7,2.7,8.1,2.1,8.1,1.4z"/>
	<path class="st0" d="M14.4,21.1c0,0.7-0.6,1.4-1.3,1.4c-5,0-9-4-9-9c0-0.7,0.6-1.4,1.3-1.4s1.3,0.6,1.3,1.4c0,3.5,2.8,6.3,6.3,6.3
		C13.8,19.8,14.4,20.4,14.4,21.1z"/>
	<path class="st0" d="M1.4,14.4c-0.7,0-1.4-0.6-1.4-1.3c0-5,4-9,9-9c0.7,0,1.4,0.6,1.4,1.3S9.7,6.8,9,6.8c-3.5,0-6.3,2.8-6.3,6.3
		C2.7,13.8,2.1,14.4,1.4,14.4z"/>
	<path class="st0" d="M21.1,8.1c0.7,0,1.4,0.6,1.4,1.3c0,5-4,9-9,9c-0.7,0-1.4-0.6-1.4-1.4s0.6-1.4,1.4-1.4c3.5,0,6.3-2.8,6.3-6.3
		C19.8,8.7,20.4,8.1,21.1,8.1z"/>
</g>
</svg>
