<?xml version="1.0" encoding="utf-8"?>
<!-- Generator: Adobe Illustrator 24.2.1, SVG Export Plug-In . SVG Version: 6.00 Build 0)  -->
<svg version="1.1" id="Layer_1" xmlns="http://www.w3.org/2000/svg" xmlns:xlink="http://www.w3.org/1999/xlink" x="0px" y="0px"
	 viewBox="0 0 1024 1024" style="enable-background:new 0 0 1024 1024;" xml:space="preserve">
<style type="text/css">
	.st0{fill-rule:evenodd;clip-rule:evenodd;fill:#FFFFFF;}
</style>
<path class="st0" d="M414,204c0-23.2,18.8-42,42-42c154.6,0,280,125.4,280,280c0,23.2-18.8,42-42,42s-42-18.8-42-42
	c0-108.2-87.8-196-196-196C432.8,246,414,227.2,414,204z"/>
<path class="st0" d="M610,820c0,23.2-18.8,42-42,42c-154.6,0-280-125.4-280-280c0-23.2,18.8-42,42-42s42,18.8,42,42
	c0,108.2,87.8,196,196,196C591.2,778,610,796.8,610,820z"/>
<path class="st0" d="M204,610c-23.2,0-42-18.8-42-42c0-154.6,125.4-280,280-280c23.2,0,42,18.8,42,42s-18.8,42-42,42
	c-108.2,0-196,87.8-196,196C246,591.2,227.2,610,204,610z"/>
<path class="st0" d="M820,414c23.2,0,42,18.8,42,42c0,154.6-125.4,280-280,280c-23.2,0-42-18.8-42-42s18.8-42,42-42
	c108.2,0,196-87.8,196-196C778,432.8,796.8,414,820,414z"/>
</svg>
