<?xml version="1.0" encoding="utf-8"?>
<!-- Generator: Adobe Illustrator 24.2.1, SVG Export Plug-In . SVG Version: 6.00 Build 0)  -->
<svg version="1.1"
	 id="Layer_1" xmlns:cc="http://creativecommons.org/ns#" xmlns:dc="http://purl.org/dc/elements/1.1/" xmlns:inkscape="http://www.inkscape.org/namespaces/inkscape" xmlns:rdf="http://www.w3.org/1999/02/22-rdf-syntax-ns#" xmlns:sodipodi="http://sodipodi.sourceforge.net/DTD/sodipodi-0.dtd" xmlns:svg="http://www.w3.org/2000/svg"
	 xmlns="http://www.w3.org/2000/svg" xmlns:xlink="http://www.w3.org/1999/xlink" x="0px" y="0px" viewBox="0 0 22.5 22.5"
	 style="enable-background:new 0 0 22.5 22.5;" xml:space="preserve">
<g id="Layer_2_1_">
	<g id="Design">
		<path d="M12.1,0.3H5.8c-1.7,0-3.1,1.4-3.1,3.1v15.7c0,1.7,1.4,3.1,3.1,3.1S9,20.8,9,19.1v-3.1h3.1c4.3,0,7.8-3.5,7.8-7.8
			S16.4,0.3,12.1,0.3z M12.1,15.2H8.2v3.9c0,1.3-1.1,2.3-2.3,2.3s-2.3-1.1-2.3-2.3V3.4c0-1.3,1-2.3,2.3-2.3h6.3
			c3.9,0.1,7,3.3,6.9,7.1C19,12,15.9,15.1,12.1,15.2z"/>
		<path d="M12.1,1.8H5.8c-0.9,0-1.5,0.7-1.5,1.6v15.7c0,0.9,0.7,1.6,1.6,1.6c0.9,0,1.6-0.7,1.6-1.6v-4.7h4.7c3.5,0,6.3-2.8,6.3-6.3
			S15.5,1.8,12.1,1.8z M12.1,13.6H6.6v5.5c0,0.4-0.4,0.8-0.8,0.8c-0.4,0-0.8-0.4-0.8-0.8V3.4C5,3,5.4,2.6,5.8,2.6h6.3
			c3,0,5.5,2.5,5.5,5.5S15.1,13.6,12.1,13.6z"/>
		<path d="M12.1,3.4H5.8v9.4h6.3c2.6,0,4.7-2.1,4.7-4.7S14.7,3.4,12.1,3.4z M12.1,12H6.6V4.2h5.5c2.2,0,3.9,1.8,3.8,4
			C15.9,10.3,14.2,12,12.1,12z"/>
		<path d="M12.1,5H7.4v6.3v0h4.7c1.7,0,3-1.4,3.1-3.1C15.2,6.4,13.8,5,12.1,5z M12.1,10.5H8.2V5.7h3.9c1.3,0,2.4,1.1,2.4,2.4
			S13.4,10.5,12.1,10.5z"/>
		<path d="M12.1,6.5H8.9v3.2h3.1c0.9,0,1.6-0.7,1.6-1.6S12.9,6.5,12.1,6.5z M12.1,8.9l-2.4,0V7.3h2.3c0.4,0,0.8,0.4,0.8,0.8
			C12.9,8.6,12.5,8.9,12.1,8.9z"/>
		<ellipse cx="5.7" cy="3.4" rx="3.1" ry="3.1"/>
		<path d="M19.2,17.3c1,1.4,0.7,3.4-0.8,4.4c-1.4,1-3.4,0.7-4.4-0.8l0,0l-4.7-6.7c-1-1.4-0.6-3.4,0.8-4.4s3.4-0.6,4.4,0.8L19.2,17.3
			z"/>
	</g>
</g>
</svg>
